<svg xmlns="http://www.w3.org/2000/svg" xmlns:xlink="http://www.w3.org/1999/xlink" width="16" height="16" viewBox="0 0 16 16">
  <defs>
    <linearGradient id="linear-gradient" x1="0.051" y1="0.227" x2="0.947" y2="0.755" gradientUnits="objectBoundingBox">
      <stop offset="0" stop-color="#58cbaa"/>
      <stop offset="1" stop-color="#37aaaa"/>
    </linearGradient>
    <clipPath id="clip-path">
      <path id="Path_8058" data-name="Path 8058" d="M5.71,0a.8.8,0,0,0-.806.8V4.27l-3-1.732a.8.8,0,0,0-1.1.295l-.7,1.2A.807.807,0,0,0,.4,5.138l3,1.731L.4,8.6A.805.805,0,0,0,.108,9.7l.7,1.2a.8.8,0,0,0,1.1.294l3-1.732v3.465a.805.805,0,0,0,.806.805H7.1a.806.806,0,0,0,.806-.805V9.469l3,1.732a.8.8,0,0,0,1.1-.294l.7-1.2a.8.8,0,0,0-.3-1.1l-3-1.733,3-1.731a.807.807,0,0,0,.3-1.1l-.7-1.2a.8.8,0,0,0-1.1-.295l-3,1.732V.806A.805.805,0,0,0,7.1,0Z" fill="url(#linear-gradient)"/>
    </clipPath>
  </defs>
  <g id="icon_s_position_all" transform="translate(-418 -313)">
    <rect id="Rectangle_4821" data-name="Rectangle 4821" width="16" height="16" transform="translate(418 313)" fill="none"/>
    <g id="Group_10083" data-name="Group 10083" transform="translate(419.595 314.13)">
      <g id="Group_10083-2" data-name="Group 10083" clip-path="url(#clip-path)">
        <rect id="Rectangle_4971" data-name="Rectangle 4971" width="13.038" height="13.738" transform="translate(-0.114 0.001)" fill="url(#linear-gradient)"/>
      </g>
    </g>
  </g>
</svg>
