<svg xmlns="http://www.w3.org/2000/svg" xmlns:xlink="http://www.w3.org/1999/xlink" width="16" height="16" viewBox="0 0 16 16"><defs><style>.a{fill:url(#a);}.b{fill:none;}</style><linearGradient id="a" x1="0.5" x2="0.5" y2="1" gradientUnits="objectBoundingBox"><stop offset="0" stop-color="#58cbaa"/><stop offset="1" stop-color="#37aaaa"/></linearGradient></defs><g transform="translate(-0.373 -0.086)"><g transform="translate(0.809 0.808)"><path class="a" d="M685.781,924.865l-3.077.483-.5.784-1.31.179-.973,1.13,2.666,5.822.8-3.1-1.677-1.9S685.592,927.341,685.781,924.865Z" transform="translate(-671.226 -922.492)"/><path class="a" d="M658.47,947.854l-.779-.6-.977,6.584,1.755,2.967h0l1.755-2.967-.977-6.584Z" transform="translate(-651.193 -942.247)"/><path class="a" d="M647.851,909.819h0l3.364-3.528-1.032-.96h-1.138l-1.195,2.391-1.195-2.391h-1.138l-1.032.96,3.364,3.528Z" transform="translate(-640.573 -905.329)"/><path class="a" d="M616.777,926.311l-1.3-.179-.5-.784-3.049-.483c.188,2.476,4.034,3.4,4.034,3.4l-1.662,1.9.793,3.1,2.641-5.822Z" transform="translate(-611.934 -922.492)"/></g><rect class="b" width="16" height="16" transform="translate(0.373 0.086)"/></g></svg>